<svg id="icon-software_engineer-4930" data-name="icon-software engineer-4930" xmlns="http://www.w3.org/2000/svg" width="23.47" height="21" viewBox="0 0 23.47 21">
  <rect id="Rectangle_23" data-name="Rectangle 23" width="23" height="20" rx="5" transform="translate(0.47 1)" fill="#e6e7e8"/>
  <rect id="Rectangle_24" data-name="Rectangle 24" width="22" height="20" rx="4" transform="translate(0.47)" fill="#d4fbff"/>
  <path id="Path_42" data-name="Path 42" d="M34.884,37.807a5.761,5.761,0,0,0-.752,1.657,2.2,2.2,0,0,1,.46.7h1.839a3.381,3.381,0,0,1,6.556,0h1.839a2.2,2.2,0,0,1,.46-.7,5.766,5.766,0,0,0-.752-1.657l.708-.708a.414.414,0,0,0,0-.585l-1.051-1.051a.414.414,0,0,0-.585,0l-.708.708a5.751,5.751,0,0,0-2.032-.844v-1a.414.414,0,0,0-.414-.414H38.966a.414.414,0,0,0-.414.414v1a5.752,5.752,0,0,0-2.032.843l-.708-.708a.414.414,0,0,0-.585,0l-1.051,1.051a.414.414,0,0,0,0,.585Z" transform="translate(-28.378 -29.682)" fill="#fa759e"/>
  <path id="Path_43" data-name="Path 43" d="M44.534,75.4a5.766,5.766,0,0,0,.752-1.657,2.2,2.2,0,0,1-.46-.7H42.987a3.381,3.381,0,0,1-6.556,0H34.592a2.2,2.2,0,0,1-.46.7,5.76,5.76,0,0,0,.752,1.657l-.708.708a.414.414,0,0,0,0,.585l1.051,1.051a.414.414,0,0,0,.585,0l.708-.708a5.752,5.752,0,0,0,2.032.843v1a.414.414,0,0,0,.414.414h1.486a.414.414,0,0,0,.414-.414v-1a5.751,5.751,0,0,0,2.032-.843l.708.708a.414.414,0,0,0,.585,0l1.051-1.051a.414.414,0,0,0,0-.585Z" transform="translate(-28.378 -60.895)" fill="#fa759e"/>
  <path id="Path_44" data-name="Path 44" d="M33.212,59.262h2.021a2.193,2.193,0,0,0-3.98.166H21.018a2.193,2.193,0,0,0-3.98-.166h2.021v2H17.038a2.193,2.193,0,0,0,3.98-.166H31.252a2.193,2.193,0,0,0,3.98.166H33.212Z" transform="translate(-14.805 -48.95)" fill="#0089ef"/>
  <path id="Path_45" data-name="Path 45" d="M28.447,14H7.809A.809.809,0,0,0,7,14.809v2.124H29.256V14.809A.809.809,0,0,0,28.447,14Z" transform="translate(-6.798 -13.798)" fill="#0089ef"/>
  <path id="Path_46" data-name="Path 46" d="M7.607,32.614V14.809A.809.809,0,0,1,8.416,14H7.809A.809.809,0,0,0,7,14.809V32.614a.809.809,0,0,0,.809.809h.607A.809.809,0,0,1,7.607,32.614Z" transform="translate(-6.798 -13.798)" fill="#fff"/>
  <path id="Path_47" data-name="Path 47" d="M93.8,19.083a.472.472,0,1,0,.472.472A.472.472,0,0,0,93.8,19.083Z" transform="translate(-75.662 -17.852)" fill="#fff"/>
  <path id="Path_48" data-name="Path 48" d="M100.8,19.083a.472.472,0,1,0,.472.472.472.472,0,0,0-.472-.472Z" transform="translate(-81.246 -17.852)" fill="#d4fbff"/>
  <path id="Path_49" data-name="Path 49" d="M107.8,19.083a.472.472,0,1,0,.472.472.472.472,0,0,0-.472-.472Z" transform="translate(-86.829 -17.852)" fill="#fa759e"/>
  <path id="Path_50" data-name="Path 50" d="M34.434,39.4a.2.2,0,0,0,.18-.295,2.395,2.395,0,0,0-3.6-.8,5.892,5.892,0,0,0-.59-1.27l.593-.593a.616.616,0,0,0,0-.871l-1.051-1.051a.631.631,0,0,0-.871,0l-.593.593a5.925,5.925,0,0,0-1.8-.747V33.53a.617.617,0,0,0-.616-.616H24.594a.617.617,0,0,0-.616.616v.838a5.922,5.922,0,0,0-1.8.749l-.593-.593a.617.617,0,0,0-.871,0l-1.051,1.051a.617.617,0,0,0,0,.871l.593.593a5.892,5.892,0,0,0-.59,1.27,2.395,2.395,0,0,0-3.6.8.2.2,0,0,0,.18.295h1.818V41H16.24a.2.2,0,0,0-.18.295,2.395,2.395,0,0,0,3.6.8,5.885,5.885,0,0,0,.59,1.27l-.593.593a.617.617,0,0,0,0,.871l1.051,1.051a.617.617,0,0,0,.871,0l.593-.593a5.917,5.917,0,0,0,1.8.748v.837a.617.617,0,0,0,.616.616H26.08a.617.617,0,0,0,.616-.616v-.837a5.915,5.915,0,0,0,1.8-.748l.593.593a.631.631,0,0,0,.871,0l1.051-1.051a.616.616,0,0,0,0-.871l-.593-.593a5.886,5.886,0,0,0,.59-1.27,2.395,2.395,0,0,0,3.6-.8.2.2,0,0,0-.18-.295H32.616V39.4ZM20.656,36.866l-.708-.708a.212.212,0,0,1,0-.3L21,34.808a.211.211,0,0,1,.3,0l.708.708a.2.2,0,0,0,.255.026,5.527,5.527,0,0,1,1.961-.813.2.2,0,0,0,.162-.2v-1a.212.212,0,0,1,.211-.212H26.08a.212.212,0,0,1,.211.212v1a.2.2,0,0,0,.162.2,5.525,5.525,0,0,1,1.961.813.2.2,0,0,0,.255-.026l.708-.708a.217.217,0,0,1,.3,0l1.051,1.051a.211.211,0,0,1,0,.3l-.708.708a.2.2,0,0,0-.026.255,5.538,5.538,0,0,1,.691,1.493,2.4,2.4,0,0,0-.362.546H28.764a3.579,3.579,0,0,0-6.856,0H20.35a2.4,2.4,0,0,0-.362-.546,5.532,5.532,0,0,1,.691-1.493.2.2,0,0,0-.024-.255Zm7.686,2.294H22.333a3.177,3.177,0,0,1,6.008,0Zm1.678,4.37.708.708a.211.211,0,0,1,0,.3l-1.051,1.051a.217.217,0,0,1-.3,0l-.708-.708a.2.2,0,0,0-.255-.026,5.518,5.518,0,0,1-1.96.813.2.2,0,0,0-.162.2v1a.212.212,0,0,1-.211.211H24.594a.212.212,0,0,1-.211-.211v-1a.2.2,0,0,0-.162-.2,5.519,5.519,0,0,1-1.961-.813.2.2,0,0,0-.255.026l-.708.708a.211.211,0,0,1-.3,0l-1.051-1.051a.212.212,0,0,1,0-.3l.708-.708a.2.2,0,0,0,.026-.255,5.529,5.529,0,0,1-.691-1.493,2.4,2.4,0,0,0,.362-.546H21.91a3.579,3.579,0,0,0,6.856,0h1.558a2.4,2.4,0,0,0,.362.546,5.533,5.533,0,0,1-.691,1.492.2.2,0,0,0,.025.255Zm-7.686-2.295h6.008a3.177,3.177,0,0,1-6.008,0Zm10.081.166h1.656a1.991,1.991,0,0,1-3.428-.445.2.2,0,0,0-.187-.125H20.22a.2.2,0,0,0-.187.125A1.991,1.991,0,0,1,16.6,41.4h1.656a.2.2,0,0,0,.2-.2v-2a.2.2,0,0,0-.2-.2H16.6a1.991,1.991,0,0,1,3.428.445.2.2,0,0,0,.187.125H30.454a.2.2,0,0,0,.187-.125,1.991,1.991,0,0,1,3.428-.445H32.414a.2.2,0,0,0-.2.2v2A.2.2,0,0,0,32.414,41.4Z" transform="translate(-14.007 -28.885)" fill="#3a2c60"/>
  <path id="Path_51" data-name="Path 51" d="M26.7,27.9h1.77a.2.2,0,0,0,0-.4H26.7a.2.2,0,0,0,0,.4Z" transform="translate(-22.352 -24.566)" fill="#3a2c60"/>
  <path id="Path_52" data-name="Path 52" d="M27.649,13H7.012A1.013,1.013,0,0,0,6,14.012V31.817a1.013,1.013,0,0,0,1.012,1.012H27.649a1.013,1.013,0,0,0,1.012-1.012V14.012A1.013,1.013,0,0,0,27.649,13Zm0,19.424H7.012a.607.607,0,0,1-.607-.607V16.338H9.372a.2.2,0,0,0,0-.4H6.4V14.012a.607.607,0,0,1,.607-.607H27.649a.607.607,0,0,1,.607.607v1.922H13.136a.2.2,0,0,0,0,.4H28.256V31.817A.607.607,0,0,1,27.649,32.424Z" transform="translate(-6 -13)" fill="#3a2c60"/>
</svg>
