<svg id="icon-face_swelling-10248" data-name="icon-face swelling-10248" xmlns="http://www.w3.org/2000/svg" width="25.528" height="32.503" viewBox="0 0 25.528 32.503">
  <g id="Group_59" data-name="Group 59" transform="translate(1.093 1.093)">
    <g id="Group_56" data-name="Group 56" transform="translate(2.294)">
      <path id="Path_65" data-name="Path 65" d="M43.482,25.445a3.5,3.5,0,0,0,3.321-4.6,1.742,1.742,0,0,0,.575-1.369,1.844,1.844,0,0,0-.419-1.222c.206-2.149.306-9.167-7.091-9.718h-.5c-7.4.551-7.3,7.571-7.091,9.719a1.845,1.845,0,0,0-.419,1.221,1.741,1.741,0,0,0,.575,1.369,3.5,3.5,0,0,0,3.321,4.6A8.355,8.355,0,0,0,29.692,33.5v5.623a.821.821,0,0,0,.82.82H48.719a.821.821,0,0,0,.82-.82V33.5A8.356,8.356,0,0,0,43.482,25.445Z" transform="translate(-29.692 -8.537)" fill="#e6e7e8"/>
    </g>
    <g id="Group_57" data-name="Group 57" transform="translate(20.713 8.594)">
      <path id="Path_66" data-name="Path 66" d="M100.665,40.015a.274.274,0,0,0-.372.105l-.956,1.714-.354-.614a.273.273,0,0,0-.227-.137.26.26,0,0,0-.236.121L97.13,43.268a.273.273,0,1,0,.453.305l1.144-1.7.376.652a.29.29,0,0,0,.239.137.273.273,0,0,0,.237-.14l1.19-2.134A.273.273,0,0,0,100.665,40.015Z" transform="translate(-97.083 -39.981)" fill="#e6e7e8"/>
    </g>
    <g id="Group_58" data-name="Group 58" transform="translate(0 8.594)">
      <path id="Path_67" data-name="Path 67" d="M24.746,43.694a.273.273,0,0,0,.226-.426L23.583,41.2a.264.264,0,0,0-.236-.121.274.274,0,0,0-.227.137l-.354.614-.956-1.714a.273.273,0,1,0-.477.266l1.19,2.134a.274.274,0,0,0,.237.14A.307.307,0,0,0,23,42.525l.376-.652,1.144,1.7A.275.275,0,0,0,24.746,43.694Z" transform="translate(-21.297 -39.981)" fill="#e6e7e8"/>
    </g>
  </g>
  <g id="Group_66" data-name="Group 66">
    <g id="Group_64" data-name="Group 64" transform="translate(2.567 5.275)">
      <path id="Path_68" data-name="Path 68" d="M38.563,66.389a6.09,6.09,0,0,1-4.444,0,8.027,8.027,0,0,0-7.429,8v5.681a.546.546,0,0,0,.547.547H45.445a.546.546,0,0,0,.547-.547V74.393A8.028,8.028,0,0,0,38.563,66.389Z" transform="translate(-26.691 -54.76)" fill="#0089ef"/>
      <g id="Group_60" data-name="Group 60" transform="translate(0 11.709)">
        <path id="Path_69" data-name="Path 69" d="M33.43,66.681a8.03,8.03,0,0,0-6.739,7.924v.82a8.029,8.029,0,0,1,6.876-7.945A2.966,2.966,0,0,1,33.43,66.681Z" transform="translate(-26.691 -66.681)" fill="#fff"/>
        <path id="Path_70" data-name="Path 70" d="M72.28,66.68a2.965,2.965,0,0,1-.137.8,8.029,8.029,0,0,1,6.878,7.945V74.6A8.03,8.03,0,0,0,72.28,66.68Z" transform="translate(-59.721 -66.68)" fill="#fff"/>
      </g>
      <g id="Group_61" data-name="Group 61" transform="translate(6.738 11.309)">
        <path id="Path_71" data-name="Path 71" d="M54.256,65.958a6.1,6.1,0,0,1-2.912-.74v.39a2.912,2.912,0,0,0,5.823,0v-.389A6.1,6.1,0,0,1,54.256,65.958Z" transform="translate(-51.344 -65.218)" fill="#fff"/>
      </g>
      <g id="Group_63" data-name="Group 63" transform="translate(2.161)">
        <path id="Path_72" data-name="Path 72" d="M84.678,41.14h0c0,.043,0,.086,0,.129a3.258,3.258,0,0,1,.659,1.025,1.362,1.362,0,0,0,.633-1.25c0-.731-.414-1.324-.924-1.324a.69.69,0,0,0-.365.108V41.14Z" transform="translate(-70.988 -35.381)" fill="#fff"/>
        <path id="Path_73" data-name="Path 73" d="M35.231,42.3a3.256,3.256,0,0,1,.658-1.024c0-.043,0-.086,0-.13V39.829a.691.691,0,0,0-.364-.107c-.51,0-.924.593-.924,1.324A1.361,1.361,0,0,0,35.231,42.3Z" transform="translate(-34.598 -35.381)" fill="#fff"/>
        <g id="Group_62" data-name="Group 62" transform="translate(0.399)">
          <path id="Path_74" data-name="Path 74" d="M49.346,29.728c0-.043,0-.086,0-.129V26.207a6.329,6.329,0,0,0-.192-1.555h-1.6a.919.919,0,0,1-.8-.467l-.14-.242a.208.208,0,0,0-.362,0l-.132.234a.917.917,0,0,1-.8.47H44.261a.915.915,0,0,1-.8-.465l-.14-.242a.208.208,0,0,0-.362,0l-.132.231a.92.92,0,0,1-.8.473H40.97a.926.926,0,0,1-.8-.465l-.137-.242a.208.208,0,0,0-.362,0l-.132.231a.924.924,0,0,1-.8.473c-.529,0-.971,0-1.278,0h-.321a6.316,6.316,0,0,0-.192,1.555V29.6c0,.043,0,.087,0,.13a3.234,3.234,0,0,0,3.174,5.36,6.123,6.123,0,0,0,6.049,0,3.237,3.237,0,0,0,3.173-5.361Z" transform="translate(-36.058 -23.838)" fill="#fff"/>
        </g>
      </g>
    </g>
    <g id="Group_65" data-name="Group 65">
      <path id="Path_75" data-name="Path 75" d="M39.443,21.445h.02a3.5,3.5,0,0,0,3.337-4.6,1.735,1.735,0,0,0,.576-1.365,1.843,1.843,0,0,0-.42-1.222c.206-2.14.314-9.166-7.091-9.718h-.5c-7.406.552-7.3,7.58-7.091,9.718a1.844,1.844,0,0,0-.419,1.221,1.735,1.735,0,0,0,.576,1.365,3.5,3.5,0,0,0,3.337,4.6h.021a8.314,8.314,0,0,0-6.1,8v5.682a.821.821,0,0,0,.82.82H44.718a.821.821,0,0,0,.82-.82V29.446A8.314,8.314,0,0,0,39.443,21.445Zm2.645-5.871V14.439c.378-.1.742.42.742,1.039a1.365,1.365,0,0,1-.257.828,3.53,3.53,0,0,0-.486-.706C42.089,15.591,42.089,15.582,42.089,15.574Zm-13.69-.1c0-.569.3-1.05.651-1.05a.378.378,0,0,1,.09.011v1.135c0,.009,0,.018,0,.027a3.525,3.525,0,0,0-.485.7A1.363,1.363,0,0,1,28.4,15.478ZM31.766,20.9a2.964,2.964,0,0,1-2.151-5.008.273.273,0,0,0,.075-.194l0-3.516a6.11,6.11,0,0,1,.135-1.282h.107c.3,0,.742,0,1.266,0a1.186,1.186,0,0,0,1.05-.611l.076-.133.081.144a1.2,1.2,0,0,0,1.034.6H34.5a1.2,1.2,0,0,0,1.038-.611l.076-.134.082.142a1.191,1.191,0,0,0,1.033.6h1.061a1.2,1.2,0,0,0,1.039-.609l.076-.135.082.142a1.2,1.2,0,0,0,1.036.606h1.385a6.088,6.088,0,0,1,.135,1.282v3.392l0,.124a.273.273,0,0,0,.075.193A2.961,2.961,0,0,1,38.709,20.8a.274.274,0,0,0-.2.027,5.849,5.849,0,0,1-5.779,0,.273.273,0,0,0-.2-.027A2.965,2.965,0,0,1,31.766,20.9Zm6.484.666a2.638,2.638,0,0,1-5.271,0,6.372,6.372,0,0,0,5.271,0ZM40.336,35.4H30.893V31.36a.273.273,0,0,0-.547,0V35.4H26.511a.274.274,0,0,1-.273-.273V29.446A7.718,7.718,0,0,1,28.2,24.295a3.867,3.867,0,0,1,2.142,3.477v.339a.273.273,0,0,0,.547,0v-.339a4.416,4.416,0,0,0-2.3-3.889,7.748,7.748,0,0,1,3.857-2.036,3.181,3.181,0,0,0,6.316,0,7.744,7.744,0,0,1,3.86,2.036,4.416,4.416,0,0,0-2.3,3.889Zm4.656-5.955v5.682a.274.274,0,0,1-.273.273H40.882V27.772a3.868,3.868,0,0,1,2.143-3.477A7.719,7.719,0,0,1,44.992,29.446Z" transform="translate(-23.397 -4.538)" fill="#3a2c60"/>
      <path id="Path_76" data-name="Path 76" d="M43,93.7a.273.273,0,0,0-.273.273v1.086a.273.273,0,0,0,.547,0V93.975A.273.273,0,0,0,43,93.7Z" transform="translate(-35.776 -69.333)" fill="#3a2c60"/>
      <path id="Path_77" data-name="Path 77" d="M69.279,35.771l1.214.215a.285.285,0,0,0,.048,0,.273.273,0,0,0,.047-.543l-1.214-.215a.273.273,0,0,0-.1.538Z" transform="translate(-54.908 -26.841)" fill="#3a2c60"/>
      <path id="Path_78" data-name="Path 78" d="M49.458,35.454a.273.273,0,0,0-.317-.222l-1.214.215a.273.273,0,0,0,.047.543.285.285,0,0,0,.048,0l1.214-.215A.273.273,0,0,0,49.458,35.454Z" transform="translate(-39.391 -26.841)" fill="#3a2c60"/>
      <path id="Path_79" data-name="Path 79" d="M59.4,48.464a.985.985,0,0,0,.978-.989v-.42a.273.273,0,0,0-.547,0v.42a.432.432,0,1,1-.864,0v-.42a.273.273,0,0,0-.547,0v.42A.985.985,0,0,0,59.4,48.464Z" transform="translate(-47.181 -35.236)" fill="#3a2c60"/>
      <path id="Path_80" data-name="Path 80" d="M70.089,40.59a.487.487,0,1,0,.487.487A.487.487,0,0,0,70.089,40.59Z" transform="translate(-55.307 -30.737)" fill="#3a2c60"/>
      <path id="Path_81" data-name="Path 81" d="M51.321,40.59a.487.487,0,1,0,.487.487A.487.487,0,0,0,51.321,40.59Z" transform="translate(-41.668 -30.737)" fill="#3a2c60"/>
      <path id="Path_82" data-name="Path 82" d="M56.39,56.02a.273.273,0,1,0,.446.316,1.712,1.712,0,0,0,.259-.529h1.614a.263.263,0,0,0,.072-.014,1.7,1.7,0,0,0,.263.544.273.273,0,1,0,.446-.316c-.418-.591-.082-.937-.04-.976a.273.273,0,0,0-.364-.408,1.108,1.108,0,0,0-.335.633.248.248,0,0,0-.042-.008H57.127a1.105,1.105,0,0,0-.333-.624.273.273,0,1,0-.362.41C56.448,55.06,56.826,55.4,56.39,56.02Z" transform="translate(-45.669 -40.894)" fill="#3a2c60"/>
      <path id="Path_83" data-name="Path 83" d="M96.666,36.015a.274.274,0,0,0-.372.105l-.956,1.714-.354-.615a.273.273,0,0,0-.227-.137.261.261,0,0,0-.236.121l-1.389,2.064a.273.273,0,1,0,.453.305l1.144-1.7.376.652a.29.29,0,0,0,.239.137.273.273,0,0,0,.237-.14l1.19-2.134A.273.273,0,0,0,96.666,36.015Z" transform="translate(-72.372 -27.387)" fill="#3a2c60"/>
      <path id="Path_84" data-name="Path 84" d="M20.747,39.694a.273.273,0,0,0,.226-.426L19.584,37.2a.264.264,0,0,0-.236-.121.274.274,0,0,0-.227.137l-.354.614-.956-1.714a.273.273,0,0,0-.477.266l1.19,2.134a.274.274,0,0,0,.237.14A.307.307,0,0,0,19,38.525l.376-.652,1.144,1.7A.274.274,0,0,0,20.747,39.694Z" transform="translate(-17.298 -27.387)" fill="#3a2c60"/>
    </g>
  </g>
</svg>
