<svg id="icon-quote-9729" xmlns="http://www.w3.org/2000/svg" width="25.201" height="25.849" viewBox="0 0 25.201 25.849">
  <g id="Group_31" data-name="Group 31" transform="translate(0.807 2.392)">
    <g id="Group_30" data-name="Group 30" transform="translate(0)">
      <path id="Path_29" data-name="Path 29" d="M44.4,53.183a9.906,9.906,0,0,0,3-7.011c0-5.881-5.422-10.649-12.111-10.649S23.173,40.291,23.173,46.172a9.829,9.829,0,0,0,2.6,6.591l1.253,1.2a13.011,13.011,0,0,0,8.26,2.862,13.685,13.685,0,0,0,3.2-.379l7.1,2.336a.586.586,0,0,0,.728-.773Z" transform="translate(-23.173 -35.523)" fill="#8ac6dd"/>
    </g>
  </g>
  <g id="Group_33" data-name="Group 33" transform="translate(0.636 2.221)">
    <g id="Group_32" data-name="Group 32" transform="translate(0 0)">
      <path id="Path_30" data-name="Path 30" d="M43.269,51.894a10.086,10.086,0,0,0,2.97-7.052c0-5.966-5.51-10.821-12.283-10.821S21.674,38.876,21.674,44.843a9.934,9.934,0,0,0,2.642,6.706.172.172,0,1,0,.255-.229,9.6,9.6,0,0,1-2.554-6.476c0-5.777,5.356-10.477,11.94-10.477s11.94,4.7,11.94,10.477a9.761,9.761,0,0,1-2.949,6.89.172.172,0,0,0-.038.184l1.913,4.822a.415.415,0,0,1-.515.547l-7.1-2.336a.171.171,0,0,0-.094,0,13.539,13.539,0,0,1-3.16.374A12.847,12.847,0,0,1,25.805,52.5a.172.172,0,0,0-.218.265,13.19,13.19,0,0,0,8.369,2.9,13.887,13.887,0,0,0,3.193-.372l7.05,2.321a.768.768,0,0,0,.24.039.759.759,0,0,0,.7-1.038Z" transform="translate(-21.674 -34.022)" fill="#3a312a"/>
    </g>
  </g>
  <g id="Group_35" data-name="Group 35" transform="translate(2.217 1.278)">
    <g id="Group_34" data-name="Group 34" transform="translate(0 0)">
      <path id="Path_31" data-name="Path 31" d="M36.994,25.785a1.772,1.772,0,0,1-1.49,1.531c1.184.056,1.478,1.608,1.478,1.608.025-1.107,1.524-1.624,1.524-1.624C37.384,27.233,36.994,25.785,36.994,25.785Z" transform="translate(-35.504 -25.785)" fill="#d7e057"/>
    </g>
  </g>
  <g id="Group_37" data-name="Group 37" transform="translate(2.046 1.107)">
    <g id="Group_36" data-name="Group 36" transform="translate(0 0)">
      <path id="Path_32" data-name="Path 32" d="M37.189,25.8c-.984-.059-1.353-1.375-1.357-1.389a.172.172,0,0,0-.337.03,1.588,1.588,0,0,1-1.344,1.376.172.172,0,0,0,.018.341c1.033.049,1.315,1.455,1.318,1.469a.172.172,0,0,0,.168.139h.014a.172.172,0,0,0,.157-.167c.022-.973,1.394-1.461,1.408-1.466a.172.172,0,0,0-.046-.333Zm-1.552,1.183a2,2,0,0,0-.868-1.015,1.842,1.842,0,0,0,.938-.946,2.1,2.1,0,0,0,.953,1A2.441,2.441,0,0,0,35.637,26.984Z" transform="translate(-34.005 -24.285)" fill="#3a312a"/>
    </g>
  </g>
  <g id="Group_39" data-name="Group 39" transform="translate(0.172 3.221)">
    <g id="Group_38" data-name="Group 38" transform="translate(0)">
      <path id="Path_33" data-name="Path 33" d="M18.672,42.765a1.254,1.254,0,0,1-1.054,1.083c.837.039,1.046,1.137,1.046,1.137.018-.783,1.078-1.149,1.078-1.149C18.947,43.789,18.672,42.765,18.672,42.765Z" transform="translate(-17.618 -42.765)" fill="#d7e057"/>
    </g>
  </g>
  <g id="Group_41" data-name="Group 41" transform="translate(0 3.049)">
    <g id="Group_40" data-name="Group 40" transform="translate(0 0)">
      <path id="Path_34" data-name="Path 34" d="M18.423,42.337c-.66-.039-.912-.936-.914-.945a.172.172,0,0,0-.337.03,1.075,1.075,0,0,1-.908.928.172.172,0,0,0,.018.341c.69.032.883.989.885,1a.172.172,0,0,0,.168.14h.014a.172.172,0,0,0,.157-.167c.015-.653.953-.988.962-.991a.172.172,0,0,0-.046-.333Zm-1.1.777a1.466,1.466,0,0,0-.509-.6,1.368,1.368,0,0,0,.557-.562,1.533,1.533,0,0,0,.565.6A1.789,1.789,0,0,0,17.327,43.115Z" transform="translate(-16.118 -41.265)" fill="#3a312a"/>
    </g>
  </g>
  <g id="Group_43" data-name="Group 43" transform="translate(0.172 0.172)">
    <g id="Group_42" data-name="Group 42" transform="translate(0)">
      <path id="Path_35" data-name="Path 35" d="M18.672,16.108a1.253,1.253,0,0,1-1.054,1.083c.837.039,1.046,1.137,1.046,1.137.018-.783,1.078-1.149,1.078-1.149C18.947,17.132,18.672,16.108,18.672,16.108Z" transform="translate(-17.618 -16.108)" fill="#d7e057"/>
    </g>
  </g>
  <g id="Group_45" data-name="Group 45">
    <g id="Group_44" data-name="Group 44" transform="translate(0)">
      <path id="Path_36" data-name="Path 36" d="M18.423,15.68c-.66-.039-.912-.936-.914-.945a.173.173,0,0,0-.181-.126.172.172,0,0,0-.156.156,1.074,1.074,0,0,1-.908.928.172.172,0,0,0,.018.341c.69.032.883.989.885,1a.172.172,0,0,0,.168.14h.014A.172.172,0,0,0,17.507,17c.015-.653.953-.988.962-.991a.172.172,0,0,0-.046-.333Zm-1.1.777a1.466,1.466,0,0,0-.509-.6,1.368,1.368,0,0,0,.557-.562,1.533,1.533,0,0,0,.565.6A1.791,1.791,0,0,0,17.327,16.458Z" transform="translate(-16.118 -14.608)" fill="#3a312a"/>
    </g>
  </g>
  <g id="Group_47" data-name="Group 47" transform="translate(5.045 6.726)">
    <g id="Group_46" data-name="Group 46" transform="translate(0 0)">
      <path id="Path_37" data-name="Path 37" d="M66.565,80.21a2.676,2.676,0,0,0-2.051-.906q-.407,0-.628.018l-.023,0a.308.308,0,0,1-.329-.36,4.742,4.742,0,0,1,.943-2.081,8.148,8.148,0,0,1,1.736-1.592,1.016,1.016,0,0,0,.269-1.38l-.023-.035a1.018,1.018,0,0,0-1.366-.328,10.163,10.163,0,0,0-3.352,3.039,8.318,8.318,0,0,0-1.515,4.823,4.818,4.818,0,0,0,1.053,3.234A3.4,3.4,0,0,0,64,85.884a3.407,3.407,0,0,0,3.4-3.4A3.232,3.232,0,0,0,66.565,80.21Z" transform="translate(-60.226 -73.412)" fill="#d7e057"/>
    </g>
  </g>
  <g id="Group_49" data-name="Group 49" transform="translate(4.874 6.554)">
    <g id="Group_48" data-name="Group 48" transform="translate(0 0)">
      <path id="Path_38" data-name="Path 38" d="M65.363,78.765a2.852,2.852,0,0,0-2.178-.961c-.272,0-.488.006-.643.019l-.022,0a.135.135,0,0,1-.114-.045.13.13,0,0,1-.033-.113,4.594,4.594,0,0,1,.91-2.007,8.016,8.016,0,0,1,1.7-1.557A1.186,1.186,0,0,0,65.3,72.49l-.023-.036h0a1.189,1.189,0,0,0-1.6-.383,10.38,10.38,0,0,0-3.407,3.09,8.524,8.524,0,0,0-1.546,4.921,5,5,0,0,0,1.094,3.345,3.58,3.58,0,0,0,2.847,1.3,3.578,3.578,0,0,0,3.572-3.572A3.413,3.413,0,0,0,65.363,78.765Zm-.414,4.67a3.123,3.123,0,0,1-2.281.948A3.21,3.21,0,0,1,60.082,83.2a4.673,4.673,0,0,1-1.013-3.123,8.186,8.186,0,0,1,1.485-4.726,10.036,10.036,0,0,1,3.3-2.988.846.846,0,0,1,1.136.272h0l.023.035a.843.843,0,0,1-.224,1.147,8.349,8.349,0,0,0-1.772,1.626,4.931,4.931,0,0,0-.976,2.155.472.472,0,0,0,.116.405.479.479,0,0,0,.4.157l.022,0c.145-.012.352-.018.614-.018A2.49,2.49,0,0,1,65.11,79a3.081,3.081,0,0,1,.786,2.157A3.124,3.124,0,0,1,64.949,83.435Z" transform="translate(-58.726 -71.91)" fill="#3a312a"/>
    </g>
  </g>
  <g id="Group_51" data-name="Group 51" transform="translate(13.62 6.74)">
    <g id="Group_50" data-name="Group 50" transform="translate(0)">
      <path id="Path_39" data-name="Path 39" d="M141.536,80.323a2.676,2.676,0,0,0-2.051-.906q-.407,0-.647.018h-.005a.307.307,0,0,1-.329-.357,4.937,4.937,0,0,1,.925-2.1,7.544,7.544,0,0,1,1.7-1.593,1.016,1.016,0,0,0,.287-1.352h0a1.017,1.017,0,0,0-1.383-.355,10.386,10.386,0,0,0-2.776,2.308l-.984,1.413a8.256,8.256,0,0,0-1.081,4.126,4.915,4.915,0,0,0,1.017,3.253,3.317,3.317,0,0,0,2.68,1.22,3.381,3.381,0,0,0,2.458-1,3.429,3.429,0,0,0,.185-4.676Z" transform="translate(-135.197 -73.539)" fill="#d7e057"/>
    </g>
  </g>
  <g id="Group_53" data-name="Group 53" transform="translate(13.449 6.571)">
    <g id="Group_52" data-name="Group 52" transform="translate(0 0)">
      <path id="Path_40" data-name="Path 40" d="M140.335,78.89a2.852,2.852,0,0,0-2.178-.961q-.407,0-.665.019a.14.14,0,0,1-.115-.046.127.127,0,0,1-.032-.109,4.791,4.791,0,0,1,.894-2.029,7.415,7.415,0,0,1,1.667-1.556,1.187,1.187,0,0,0-1.281-2,10.605,10.605,0,0,0-2.821,2.346.172.172,0,1,0,.263.22,10.262,10.262,0,0,1,2.731-2.27.844.844,0,0,1,.911,1.419,7.75,7.75,0,0,0-1.743,1.631,5.13,5.13,0,0,0-.957,2.174.469.469,0,0,0,.115.4.481.481,0,0,0,.4.157c.158-.012.372-.018.634-.018a2.49,2.49,0,0,1,1.925.85,3.257,3.257,0,0,1-.179,4.437,3.229,3.229,0,0,1-2.338.949,3.126,3.126,0,0,1-2.548-1.158,4.772,4.772,0,0,1-.977-3.143,8.123,8.123,0,0,1,1.058-4.042.172.172,0,0,0-.3-.169,8.465,8.465,0,0,0-1.1,4.211,5.1,5.1,0,0,0,1.056,3.362,3.5,3.5,0,0,0,2.812,1.282,3.562,3.562,0,0,0,2.578-1.047,3.6,3.6,0,0,0,.191-4.914Z" transform="translate(-133.698 -72.052)" fill="#3a312a"/>
    </g>
  </g>
  <g id="Group_55" data-name="Group 55" transform="translate(11.912 2.563)">
    <g id="Group_54" data-name="Group 54">
      <path id="Path_41" data-name="Path 41" d="M130.216,54.57a.172.172,0,0,1,.038-.184A9.757,9.757,0,0,0,133.2,47.5c0-5.777-5.355-10.479-11.939-10.479-.339,0-.675.013-1.007.038,6.115.45,10.934,4.961,10.934,10.441a9.758,9.758,0,0,1-2.95,6.889.172.172,0,0,0-.038.184l1.914,4.822a.307.307,0,0,1,.018.061l1.479.486a.414.414,0,0,0,.516-.547Z" transform="translate(-120.257 -37.018)" fill="#68a8bc"/>
    </g>
  </g>
</svg>
