<svg id="instagram" xmlns="http://www.w3.org/2000/svg" width="17.821" height="17.821" viewBox="0 0 17.821 17.821">
  <g id="Group_68" data-name="Group 68">
    <path id="Path_87" data-name="Path 87" d="M8.91,0C6.492,0,6.188.011,5.238.053A6.566,6.566,0,0,0,3.074.468,4.363,4.363,0,0,0,1.5,1.5,4.374,4.374,0,0,0,.468,3.074,6.527,6.527,0,0,0,.053,5.235C.011,6.187,0,6.49,0,8.912s.011,2.722.053,3.672a6.564,6.564,0,0,0,.414,2.163,4.562,4.562,0,0,0,2.605,2.606,6.542,6.542,0,0,0,2.163.414c.951.042,1.254.053,3.674.053s2.722-.011,3.673-.053a6.578,6.578,0,0,0,2.164-.414,4.562,4.562,0,0,0,2.605-2.606,6.593,6.593,0,0,0,.414-2.163c.042-.95.053-1.253.053-3.673s-.011-2.723-.053-3.674a6.586,6.586,0,0,0-.414-2.162A4.373,4.373,0,0,0,16.325,1.5,4.356,4.356,0,0,0,14.747.468,6.555,6.555,0,0,0,12.583.053C11.631.011,11.33,0,8.908,0h0Zm-.8,1.606h.8c2.379,0,2.661.008,3.6.051a4.938,4.938,0,0,1,1.655.306,2.765,2.765,0,0,1,1.025.667,2.753,2.753,0,0,1,.666,1.025,4.894,4.894,0,0,1,.306,1.654c.043.939.052,1.221.052,3.6s-.009,2.661-.052,3.6a4.929,4.929,0,0,1-.306,1.654,2.953,2.953,0,0,1-1.692,1.69,4.9,4.9,0,0,1-1.654.307c-.939.042-1.221.052-3.6.052s-2.662-.01-3.6-.052a4.922,4.922,0,0,1-1.654-.307,2.76,2.76,0,0,1-1.025-.666,2.762,2.762,0,0,1-.668-1.025,4.923,4.923,0,0,1-.306-1.654c-.042-.939-.051-1.221-.051-3.6s.009-2.66.051-3.6a4.93,4.93,0,0,1,.307-1.655,2.765,2.765,0,0,1,.667-1.025,2.753,2.753,0,0,1,1.025-.666,4.922,4.922,0,0,1,1.654-.307c.822-.038,1.141-.049,2.8-.05v0Zm5.556,1.479a1.069,1.069,0,1,0,1.069,1.069,1.069,1.069,0,0,0-1.069-1.069ZM8.912,4.335a4.576,4.576,0,1,0,4.577,4.576A4.576,4.576,0,0,0,8.912,4.335Zm0,1.6A2.971,2.971,0,1,1,5.941,8.91,2.971,2.971,0,0,1,8.912,5.94Z" fill="#fff"/>
  </g>
</svg>
