<svg id="linkedin" xmlns="http://www.w3.org/2000/svg" width="17.478" height="16.707" viewBox="0 0 17.478 16.707">
  <path id="Path_88" data-name="Path 88" d="M3.967,16.707V5.435H.221V16.707ZM2.094,3.895A1.954,1.954,0,1,0,2.119,0,1.953,1.953,0,1,0,2.07,3.895h.024ZM6.041,16.707H9.788V10.412A2.568,2.568,0,0,1,9.911,9.5a2.051,2.051,0,0,1,1.922-1.37c1.356,0,1.9,1.034,1.9,2.549v6.03h3.746V10.243c0-3.462-1.848-5.073-4.313-5.073a3.732,3.732,0,0,0-3.4,1.9h.025V5.434H6.041c.049,1.058,0,11.272,0,11.272Z" transform="translate(0 0)" fill="#fff"/>
</svg>
